<svg width="12" height="11" viewBox="0 0 12 11" fill="none" xmlns="http://www.w3.org/2000/svg">
<path d="M1.11603 1.17648C0.961324 1.02177 0.961324 0.770876 1.11603 0.61609C1.27073 0.461303 1.52163 0.461303 1.67642 0.61609L5.99996 4.93961L10.3235 0.61609C10.4782 0.461303 10.7291 0.461303 10.884 0.61609C11.0387 0.770795 11.0387 1.02177 10.884 1.17648L6.56027 5.49992L10.8839 9.82352C11.0386 9.97823 11.0386 10.2291 10.8839 10.3839C10.7291 10.5387 10.4782 10.5387 10.3234 10.3839L5.99988 6.06039L1.67642 10.3839C1.52171 10.5387 1.27082 10.5387 1.11603 10.3839C0.961324 10.2292 0.961324 9.97831 1.11603 9.82352L5.43957 5.49992L1.11603 1.17648Z" fill="#CED4DA" stroke="#CED4DA" stroke-width="0.5"/>
</svg>
